#N canvas 498 489 759 521 10;
#X obj 299 257 dac~;
#X obj 244 192 osc~;
#X obj 244 92 r pitch @hv_param 0 500 0;
#X obj 406 94 r freq @hv_param 0 1 0;
#X obj 406 192 phasor~;
#X obj 406 152 * 700;
#X connect 1 0 0 0;
#X connect 1 0 0 1;
#X connect 2 0 1 0;
#X connect 3 0 5 0;
#X connect 4 0 0 0;
#X connect 4 0 0 1;
#X connect 5 0 4 0;
